<svg width="200" height="54" viewBox="0 0 200 54" fill="none" xmlns="http://www.w3.org/2000/svg">
    <path d="M15.8331 11.8594L13.4679 19.228H16.5459L19.1434 11.8594H24.1061C23.8145 14.0928 22.027 16.9169 21.7462 19.0155C21.6868 19.4767 21.7624 19.3057 22.0918 19.3472C22.5184 19.4042 24.2519 19.2643 24.3437 19.3472L23.3879 22.9641C22.5508 23.1248 20.8498 22.6221 20.3422 23.332C19.9966 25.5965 17.8311 29.1564 17.7177 31.2551C17.6907 31.7318 17.7178 31.5505 18.0688 31.5971C18.652 31.68 19.3702 31.5297 19.9696 31.5971C20.2882 31.6334 20.4016 31.4779 20.2936 31.908L19.1056 35.1933L16.3245 35.2503L13.1114 44.5258H8.26756L11.3456 35.3436L8.02456 35.3332L4.9627 44.531H0L2.83506 35.2296H0.469807L1.43642 31.623C2.27884 31.4468 3.86647 31.9806 4.35788 31.1359L6.85274 22.9797H4.48749L5.4541 19.3731L8.23516 19.3161L10.6328 11.8594H15.8331ZM9.21258 31.5919L12.6416 31.3691L15.2607 23.6585L15.1257 23.0781L12.0746 23.0056L9.20718 31.5919H9.21258Z" fill="#771139"/>
    <path d="M133.326 46.7988L132.619 48.3844L133.931 48.4052C134.698 48.3171 134.455 46.4983 135.692 46.804L135.222 48.3896H135.929V49.0685C134.655 48.856 134.557 49.4156 134.039 50.3173C134.655 50.566 135.135 50.4883 134.984 51.3329C133.105 50.6334 133.315 52.96 132.268 53.1518C131.328 53.3228 132.711 51.3951 132.619 51.3381C130.324 50.7267 131.209 53.3901 129.309 53.1466L130.021 51.4521L129.481 51.3381L129.309 50.7681C129.595 50.1463 130.718 51.0065 131.188 49.3949C131.371 48.7627 130.389 49.2032 130.248 49.0633V48.3844C131.955 48.6954 131.906 47.7833 132.608 46.6641L133.321 46.7936L133.326 46.7988ZM131.674 50.4261C133.812 51.022 134.05 48.3689 132.376 49.1773C132.117 49.3016 131.496 50.281 131.674 50.4261Z" fill="#771139"/>
    <path d="M105.908 44.9826H100.001V43.6197C97.4842 44.8427 94.0389 45.4904 91.3227 44.5732C85.8686 42.7336 88.7954 36.4636 93.1911 35.1578C96.2314 34.2509 99.0881 34.8935 101.891 36.132L102.128 33.6395C97.9648 34.2717 92.4405 33.7587 91.9653 28.7582C91.7493 26.4626 93.3423 19.1562 94.363 16.9953C96.3988 12.6685 100.632 11.3056 105.336 11.6217C110.633 11.9741 111.962 14.9796 111.292 19.6225C110.752 23.3483 108.619 34.6551 107.145 37.6451C106.88 38.1788 105.541 39.7334 105.525 39.8681C105.493 40.1479 106.097 41.5107 106.151 42.1429C106.238 43.1482 106.033 44.0032 105.919 44.9774L105.908 44.9826ZM102.544 16.2284C101.302 16.358 100.573 16.8451 100.022 17.9022C99.439 19.037 97.8892 25.9289 97.954 27.1414C98.0836 29.7531 102.053 29.5717 103.354 27.4472C104.062 26.2916 105.196 20.7159 105.368 19.1717C105.606 17.0161 105.012 15.9693 102.544 16.2232V16.2284ZM96.6904 39.5416C94.0444 38.7333 93.6393 40.9874 96.361 40.0184C96.6904 39.8992 96.7606 40.0909 96.6904 39.5416Z" fill="#4D71B6"/>
    <path d="M35.4608 11.8672L30.0175 38.0822C30.3793 41.4867 35.1206 40.5799 35.8712 37.7817L41.3739 11.8672H49.4146L48.4588 16.619L46.3528 16.6397C44.7867 23.1067 43.8849 29.9467 42.2055 36.367C41.0013 40.9893 38.7224 44.3367 33.3925 44.9223C27.7764 45.5389 23.1647 43.6165 24.1853 37.45L29.5584 11.8672H35.4662H35.4608Z" fill="#4D71B6"/>
    <path d="M171.402 44.5364H165.494L170.927 18.7825C171.434 14.9221 165.856 15.6009 165.138 18.6737L159.462 44.5364H153.668C155.358 37.3129 156.579 29.9702 158.269 22.7518C158.949 19.8345 159.387 16.6476 161.585 14.3624C165.624 10.1703 176.98 9.77129 177.094 17.2021L171.402 44.5364Z" fill="#4D71B6"/>
    <path d="M57.9156 11.8672L56.733 17.3133H68.5539L67.2362 22.0495L55.6692 22.0651L52.2563 38.2791C52.5425 40.1135 54.0708 40.5177 55.8042 40.1239C57.4404 39.756 57.9102 38.4761 58.3153 37.0925C59.3197 33.6673 59.7031 29.6617 60.5131 26.1588H66.6584C64.3634 33.7087 65.5838 44.316 54.7296 44.9948C49.7777 45.3058 45.6682 43.4351 46.3324 38.0719L51.7649 11.8672H57.9102H57.9156Z" fill="#4D71B6"/>
    <path d="M122.689 11.8672L121.506 17.3133H133.327L132.155 21.9822L120.432 22.0651L117.029 38.2791C117.316 40.1135 118.844 40.5177 120.577 40.1239C122.214 39.756 122.683 38.4761 123.088 37.0925C124.093 33.6777 124.492 29.6617 125.286 26.1588H131.432C129.234 33.4548 130.254 44.2746 119.735 44.9948C114.61 45.3472 110.35 43.461 111.127 37.8698L116.533 11.8672H122.678H122.689Z" fill="#4D71B6"/>
    <path d="M200.001 11.8672L194.088 39.6523C194.071 39.9892 196.28 39.4451 196.399 40.098L195.508 44.5337H187.235L187.942 40.2223C182.067 40.9219 177.142 39.7974 177.806 33.1025L180.852 18.671H186.76L183.687 33.9627C184.459 36.5743 188.185 35.9991 189.255 33.8849L194.088 11.8672H199.995H200.001Z" fill="#4D71B6"/>
    <path d="M156.028 11.8645L150.115 39.6497C150.098 39.9865 152.307 39.4424 152.426 40.0953L151.535 44.531H143.262L143.969 40.2197C140.07 40.7638 134.849 40.427 133.86 35.9654C133.736 30.1462 136.01 24.4047 136.879 18.6631H142.787L139.725 33.7217C140.157 36.494 144.013 36.1209 145.201 34.0222L150.115 11.8594H156.022L156.028 11.8645Z" fill="#4D71B6"/>
    <path d="M87.4629 30.465H81.5551C81.8521 26.7444 83.5856 22.6145 83.888 18.982C84.2498 14.6448 78.8713 15.6345 78.0721 18.8473L72.4506 44.5338H66.6562L72.159 18.8473C73.455 13.6654 77.9317 11.1418 83.3318 11.4009C94.8232 11.9502 87.9219 24.0084 87.4575 30.465H87.4629Z" fill="#4D71B6"/>
    <path d="M113.231 6.1882H118.669V7.09503H112.993L112.723 7.97076L111.341 8.00185L111.573 7.09503H110.391V6.1882L111.8 6.17783C112.243 3.86153 112.216 0.938968 115.262 0.539965C122.114 -0.361679 118.712 7.6443 113.593 5.05337L113.231 6.1882ZM113.976 4.11545C116.223 5.79955 119.571 2.17225 116.541 1.51416C114.862 1.15143 113.398 2.39507 113.976 4.11545Z" fill="#4D71B6"/>
    <path d="M42.0694 5.74498H47.5073V6.65181H41.8318L41.5618 7.52754L40.1794 7.55863L40.417 6.65699H39.2344V5.75017L40.6438 5.73979C41.065 3.30432 41.0758 0.371384 44.3159 0.0812C51.012 -0.525078 47.3075 7.13372 42.4204 4.6257L42.0694 5.75534V5.74498ZM42.8363 3.6515C43.7813 4.52206 45.9791 4.07642 46.4057 2.76022C46.9889 0.97248 44.6939 0.589027 43.5005 1.3404C42.9388 1.69276 42.2746 3.1385 42.8363 3.65669V3.6515Z" fill="#4D71B6"/>
    <path d="M21.4761 7.5165L20.0882 7.54242C19.8776 7.3766 21.233 3.23111 21.1628 2.4331C21.1034 1.73355 20.1152 0.992541 19.3754 1.19463L18.5492 5.29349C18.3926 5.53704 16.9292 5.60958 17.0966 5.0344L17.9552 1.19463C16.0003 1.23091 15.7141 2.43309 15.2011 3.92547L13.9375 3.91511C13.9591 0.645356 17.21 -0.365113 20.1476 0.111619C24.5379 0.826716 21.7731 4.77529 21.4707 7.5165H21.4761Z" fill="#4D71B6"/>
    <path d="M51.7673 0.296875L50.6495 5.82591C50.9411 7.02811 52.2587 7.16802 53.2793 6.62393C54.4512 5.99174 54.8886 1.63898 55.0776 0.296875H56.73L55.6068 5.22483C56.2386 6.32339 57.0054 6.29747 56.4978 7.77949L54.9642 6.64984C53.9544 8.1474 50.3201 8.33912 49.4399 6.73274C48.7054 5.38546 50.3849 1.93434 50.3633 0.307233L51.7727 0.296875H51.7673Z" fill="#4D71B6"/>
    <path d="M26.2345 0.0741208C26.5153 0.338396 24.8197 5.18861 25.1599 5.96071C25.5973 6.95044 27.4279 6.85199 28.1299 6.09026C28.9507 5.20416 29.3287 1.36958 29.5394 0.0689338C29.993 0.100025 31.1324 -0.159066 31.1054 0.540485C31.0676 1.5354 29.9282 4.43724 30.0686 5.15234C30.1496 5.56171 31.0622 5.93481 31.1378 6.33899C31.1972 6.64472 30.857 7.17328 30.9542 7.56192L29.4206 6.43745C28.3243 7.87801 24.7981 8.163 23.8962 6.51517C23.1996 5.24043 24.8251 1.67013 24.8197 0.0896657L26.2291 0.0792998L26.2345 0.0741208Z" fill="#4D71B6"/>
    <path d="M32.1418 4.15159L32.5198 3.22921C34.2533 3.00121 37.4717 4.0894 37.9469 1.8612C37.5635 0.912919 36.3485 0.793742 35.4359 1.07356C34.6313 1.32229 34.291 2.47784 33.0868 2.10475C34.0696 -1.77129 42.7692 0.244464 37.8173 3.80959C39.405 4.33814 38.8433 6.36942 37.6607 7.06379C36.1919 7.92917 31.7152 8.03798 32.1418 5.50924L33.5296 5.54551C33.5782 6.85652 35.3279 6.82543 36.3647 6.49379C37.8335 6.02742 37.4879 4.1464 36.5213 4.1464H32.1472L32.1418 4.15159Z" fill="#4D71B6"/>
    <path d="M85.5743 7.7791H83.9219C83.9327 6.22454 86.6489 1.00641 83.5709 1.1826C80.9302 1.33805 81.292 5.9499 80.59 7.75319L79.1914 7.77392C80.0932 4.45235 79.4128 -0.325328 84.4889 0.306859C88.5174 0.814682 85.2665 5.354 85.5743 7.77392V7.7791Z" fill="#4D71B6"/>
    <path d="M73.0487 2.10535L72.6599 3.20908L67.8754 3.04326C65.8125 6.83639 69.5926 8.84177 70.9048 4.70146L72.3358 4.603C72.1414 6.35965 71.056 7.62921 69.1606 7.78985C63.5553 8.2614 66.6549 3.36453 66.9249 0.317599L68.3182 0.296875L68.0806 2.11053H73.0433L73.0487 2.10535Z" fill="#4D71B6"/>
    <path d="M101.654 2.10535L101.265 3.20908C99.5316 3.44744 97.9439 2.62871 96.2483 3.27645C96.2915 4.25582 95.1629 6.39593 96.6155 6.8312C98.3219 7.33903 99.2184 6.1161 99.51 4.70664L100.941 4.60819C100.747 6.36484 99.6612 7.63438 97.7657 7.79502C92.1172 8.27175 95.3141 3.35418 95.5193 0.307241L96.9287 0.296875L96.6911 2.11053H101.654V2.10535Z" fill="#4D71B6"/>
    <path d="M105.911 0.295843C106.164 2.0784 103.146 6.93898 106.267 6.89234C108.368 6.86125 108.395 5.06315 108.513 3.47232H110.166C109.777 5.20306 109.394 7.43644 107.196 7.76808C101.655 8.60236 103.724 4.35324 104.258 1.20267H102.725C102.174 -0.289708 104.922 0.461663 105.916 0.295843H105.911Z" fill="#4D71B6"/>
    <path d="M64.4661 0.8231C65.422 1.66256 64.9575 3.48658 64.5579 4.5074L63.1215 4.60586C62.9001 4.41931 64.8441 1.28947 62.2899 1.19102C59.4278 1.0822 59.8113 5.90651 59.0822 7.76161L57.6836 7.78234C58.1696 6.18115 58.31 2.33102 59.4764 1.22211C60.5403 0.206461 63.3591 -0.15109 64.4661 0.8231Z" fill="#4D71B6"/>
    <path d="M76.3578 0.296875L74.9376 6.87266C76.7844 6.84157 78.3991 6.52029 78.7231 8.68631L77.2002 8.70186C77.2812 7.16284 73.5768 8.05931 73.2852 7.77949L74.7054 0.296875H76.3578Z" fill="#4D71B6"/>
    <path d="M89.832 0.302062L89.1245 3.47336H90.777L90.7554 4.25064C90.5772 4.87764 89.6808 4.12109 89.1083 4.48382L88.1417 7.75358L86.7539 7.77949L88.3793 0.426422L89.8266 0.296875L89.832 0.302062Z" fill="#4D71B6"/>
    <path d="M145.117 53.1116L144.205 53.1426C143.859 52.8317 145.83 48.8158 143.654 48.8935C141.715 48.9609 141.677 51.7798 141.607 53.1478H140.425C140.376 52.3291 141.429 49.5931 140.84 49.1163C138.081 48.3339 137.989 51.2409 137.822 53.1478H136.645L137.617 48.4168C138.437 48.023 138.583 48.8521 138.648 48.8417C138.988 48.7847 139.642 48.2043 140.327 48.1732C141.181 48.137 141.78 48.8365 142.201 48.8313C142.547 48.8313 143.373 48.194 144.118 48.1784C147.04 48.111 145.506 51.4741 145.123 53.1167L145.117 53.1116Z" fill="#4D71B6"/>
    <path d="M164.067 46.1094L162.868 53.1256C162.052 53.4987 161.89 52.68 161.82 52.68C160.94 52.6955 160.243 53.9495 158.504 52.9184C155.632 51.2135 160.098 46.2804 162.646 48.8299L163.138 46.1249L164.067 46.1094ZM160.697 48.8713C158.78 49.177 158.153 52.0323 159.504 52.4157C162.652 53.3174 163.527 48.4205 160.697 48.8713Z" fill="#4D71B6"/>
    <path d="M148.343 50.8794C147.506 51.1023 148.419 52.3563 149.213 52.5428C150.541 52.8537 151.033 51.3717 152.242 51.9003C150.579 54.087 146.264 53.8331 147.144 50.4079C147.911 47.4128 153.662 47.3091 152.48 50.8794H148.343ZM151.243 49.1176C150.482 48.3869 148.036 49.1331 148.462 50.4234H151.535C151.54 50.0451 151.524 49.387 151.243 49.1176Z" fill="#4D71B6"/>
    <path d="M183.535 49.1414C184.831 47.8563 188.379 47.7734 188.649 49.8772C188.973 52.3801 185.798 54.1367 183.6 52.8931C182.298 52.1573 182.612 50.0586 183.535 49.1414ZM185.76 48.8771C183.6 49.1466 182.995 52.52 185.263 52.6288C187.774 52.748 188.476 48.5403 185.76 48.8771Z" fill="#4D71B6"/>
    <path d="M175.889 50.8756H171.752L171.428 51.4094C172.638 53.9381 173.972 51.5959 175.651 51.8965C174.144 53.9226 170.046 53.9433 170.472 50.7824C170.899 47.6214 176.947 47.1032 175.889 50.8756ZM174.944 50.4196C175.494 48.2847 172.065 48.4402 171.871 50.0828C171.817 50.5492 171.882 50.373 172.217 50.4196C173.048 50.5336 174.08 50.3367 174.944 50.4196Z" fill="#4D71B6"/>
    <path d="M169.977 48.3802C170.582 48.9139 165.986 51.8261 165.722 52.4635H169.269L168.913 53.1423H164.069C163.967 52.7485 164.242 52.6863 164.42 52.4583C165.403 51.225 167.212 50.3286 168.319 49.1678L165.246 49.0538V48.375H169.977V48.3802Z" fill="#4D71B6"/>
    <path d="M178.232 48.3905L179.069 52.2354C179.534 51.7846 181.111 48.5563 181.354 48.4112C181.597 48.2661 182.169 48.4216 182.498 48.3749C182.633 48.4837 180.911 51.028 180.706 51.3027C180.106 52.1214 179.366 53.6708 178.216 53.0023C177.995 51.6239 177.239 50.0383 177.071 48.6962C176.996 48.0847 177.822 48.4319 178.232 48.3801V48.3905Z" fill="#4D71B6"/>
    <path d="M191.015 48.3778L191.847 52.2331C192.073 52.2383 193.931 48.5281 194.131 48.4089C194.379 48.2638 194.946 48.4193 195.276 48.3726L192.549 52.6736C192.37 53.1088 191.263 53.3835 190.993 53C190.864 52.8187 189.903 49.1447 189.849 48.6939C189.773 48.0721 190.605 48.4504 191.02 48.3674L191.015 48.3778Z" fill="#4D71B6"/>
    <path d="M157.439 49.0527C154.885 49.0424 154.734 51.198 154.615 53.1464H153.438L154.248 48.5967L155.322 48.3894L155.446 49.0631L157.455 48.1562L157.444 49.0475L157.439 49.0527Z" fill="#4D71B6"/>
</svg>
