<svg width="150" height="40" viewBox="0 0 150 40" fill="none" xmlns="http://www.w3.org/2000/svg">
    <path d="M11.8748 8.89844L10.1009 14.4249H12.4094L14.3575 8.89844H18.0795C17.8608 10.5735 16.5202 12.6915 16.3096 14.2655C16.2651 14.6114 16.3218 14.4832 16.5688 14.5143C16.8888 14.557 18.1889 14.4521 18.2577 14.5143L17.5408 17.227C16.9131 17.3474 15.6373 16.9705 15.2566 17.5029C14.9974 19.2012 13.3733 21.8712 13.2883 23.4452C13.268 23.8027 13.2883 23.6667 13.5515 23.7017C13.9889 23.7639 14.5276 23.6512 14.9771 23.7017C15.2161 23.7289 15.3012 23.6123 15.2202 23.9349L14.3291 26.3988L12.2434 26.4416L9.83356 33.3982H6.20065L8.50919 26.5115L6.0184 26.5038L3.72201 33.4021H0L2.12629 26.426H0.352354L1.07731 23.7211C1.70912 23.589 2.89984 23.9893 3.2684 23.3558L5.13954 17.2386H3.3656L4.09056 14.5337L6.17635 14.491L7.97458 8.89844H11.8748ZM6.90941 23.6978L9.4812 23.5307L11.4455 17.7477L11.3442 17.3125L9.05595 17.2581L6.90536 23.6978H6.90941Z" fill="#771139"/>
    <path d="M99.9937 35.101L99.4631 36.2903L100.447 36.3058C101.022 36.2398 100.84 34.8756 101.768 35.1049L101.415 36.2942H101.946V36.8033C100.99 36.6439 100.917 37.0637 100.528 37.7399C100.99 37.9265 101.35 37.8682 101.237 38.5016C99.8277 37.977 99.9856 39.722 99.1999 39.8658C98.4952 39.994 99.532 38.5483 99.4631 38.5055C97.7419 38.0469 98.4061 40.0445 96.9805 39.8619L97.5151 38.591L97.1101 38.5055L96.9805 38.078C97.1951 37.6117 98.0375 38.2568 98.3899 37.0481C98.5276 36.574 97.7905 36.9043 97.6852 36.7994V36.2903C98.965 36.5235 98.9285 35.8395 99.4551 35L99.9897 35.0972L99.9937 35.101ZM98.7544 37.8215C100.358 38.2685 100.536 36.2786 99.2809 36.8849C99.0865 36.9782 98.6207 37.7127 98.7544 37.8215Z" fill="#771139"/>
    <path d="M79.4342 33.7369H75.0034V32.7147C73.1161 33.6319 70.5321 34.1177 68.4949 33.4298C64.4044 32.0502 66.5995 27.3476 69.8963 26.3683C72.1765 25.6882 74.3189 26.1701 76.4209 27.0989L76.5991 25.2296C73.4765 25.7037 69.3333 25.3189 68.9769 21.5686C68.8149 19.8469 70.0097 14.3671 70.7751 12.7465C72.302 9.50135 75.4773 8.47924 79.0049 8.71631C82.978 8.98058 83.9743 11.2347 83.4721 14.7169C83.0671 17.5112 81.4673 25.9913 80.3616 28.2337C80.1632 28.634 79.1588 29.7999 79.1466 29.901C79.1223 30.1109 79.5759 31.133 79.6164 31.6071C79.6812 32.3611 79.5273 33.0023 79.4423 33.733L79.4342 33.7369ZM76.911 12.1713C75.9795 12.2685 75.4327 12.6338 75.0196 13.4266C74.5822 14.2777 73.4198 19.4466 73.4684 20.356C73.5656 22.3148 76.5424 22.1787 77.5185 20.5853C78.049 19.7187 78.8996 15.5369 79.0292 14.3788C79.2074 12.762 78.7619 11.977 76.911 12.1674V12.1713ZM72.5207 29.6561C70.5362 29.0499 70.2324 30.7405 72.2737 30.0137C72.5207 29.9243 72.5734 30.0681 72.5207 29.6561Z" fill="white"/>
    <path d="M26.5985 8.89844L22.516 28.5597C22.7874 31.113 26.3433 30.4329 26.9063 28.3342L31.0333 8.89844H37.0638L36.347 12.4623L34.7675 12.4778C33.5929 17.328 32.9166 22.458 31.657 27.2733C30.7538 30.7399 29.0447 33.2505 25.0473 33.6897C20.8352 34.1522 17.3765 32.7103 18.1419 28.0855L22.1717 8.89844H26.6025H26.5985Z" fill="white"/>
    <path d="M128.554 33.3983H124.124L128.198 14.083C128.579 11.1876 124.395 11.6967 123.856 14.0014L119.6 33.3983H115.254C116.522 27.9807 117.437 22.4737 118.705 17.06C119.215 14.8719 119.543 12.4818 121.191 10.7679C124.221 7.62381 132.738 7.32456 132.823 12.8976L128.554 33.3983Z" fill="white"/>
    <path d="M43.4396 8.89844L42.5527 12.983H51.4183L50.43 16.5352L41.7548 16.5469L39.1952 28.7073C39.4098 30.0831 40.556 30.3863 41.8561 30.0909C43.0832 29.815 43.4356 28.855 43.7393 27.8174C44.4927 25.2485 44.7802 22.2443 45.3877 19.6171H49.9967C48.2754 25.2796 49.1907 33.235 41.0501 33.7441C37.3362 33.9773 34.2541 32.5743 34.7522 28.5519L38.8266 8.89844H43.4356H43.4396Z" fill="white"/>
    <path d="M92.0215 8.89844L91.1345 12.983H100L99.1212 16.4847L90.3285 16.5469L87.777 28.7073C87.9916 30.0831 89.1378 30.3863 90.4379 30.0909C91.6651 29.815 92.0174 28.855 92.3212 27.8174C93.0745 25.2562 93.3742 22.2443 93.9695 19.6171H98.5785C96.9301 25.0891 97.6956 33.2039 89.8061 33.7441C85.9626 34.0084 82.7671 32.5937 83.3503 28.4003L87.4044 8.89844H92.0134H92.0215Z" fill="white"/>
    <path d="M150.003 8.89844L145.569 29.7372C145.556 29.9898 147.213 29.5818 147.302 30.0715L146.634 33.3982H140.429L140.96 30.1647C136.553 30.6894 132.86 29.8461 133.358 24.8248L135.642 14.0013H140.073L137.768 25.47C138.347 27.4287 141.142 26.9973 141.944 25.4117L145.569 8.89844H149.999H150.003Z" fill="white"/>
    <path d="M117.024 8.89841L112.589 29.7372C112.577 29.9898 114.233 29.5818 114.322 30.0714L113.654 33.3982H107.449L107.98 30.1647C105.056 30.5728 101.139 30.3202 100.398 26.974C100.305 22.6096 102.01 18.3035 102.662 13.9973H107.093L104.797 25.2912C105.121 27.3704 108.012 27.0906 108.903 25.5166L112.589 8.89453H117.02L117.024 8.89841Z" fill="white"/>
    <path d="M65.601 22.8467H61.1702C61.393 20.0563 62.6931 16.9589 62.9199 14.2345C63.1912 10.9816 59.1574 11.7239 58.5579 14.1335L54.3418 33.3983H49.9961L54.1231 14.1335C55.0951 10.2471 58.4526 8.35442 62.5027 8.54874C71.1212 8.96069 65.9453 18.0043 65.597 22.8467H65.601Z" fill="white"/>
    <path d="M84.9233 4.64114H89.0017V5.32125H84.7451L84.5426 5.97805L83.5058 6.00137L83.6799 5.32125H82.793V4.64114L83.85 4.63336C84.1821 2.89614 84.1619 0.704225 86.4461 0.404973C91.5857 -0.271257 89.0341 5.73321 85.1947 3.79002L84.9233 4.64114ZM85.4822 3.08658C87.167 4.34965 89.6781 1.62919 87.406 1.13562C86.1464 0.863569 85.0488 1.7963 85.4822 3.08658Z" fill="white"/>
    <path d="M31.5521 4.30482H35.6305V4.98493H31.3739L31.1714 5.64173L30.1345 5.66505L30.3127 4.98882H29.4258V4.30871L30.4829 4.30092C30.7988 2.47432 30.8069 0.274631 33.2369 0.0569937C38.259 -0.397713 35.4806 5.34636 31.8153 3.46535L31.5521 4.31258V4.30482ZM32.1272 2.73471C32.8359 3.38763 34.4843 3.0534 34.8043 2.06625C35.2417 0.725451 33.5204 0.437862 32.6253 1.00139C32.2041 1.26566 31.706 2.34996 32.1272 2.7386V2.73471Z" fill="white"/>
    <path d="M16.107 5.64126L15.0662 5.6607C14.9082 5.53633 15.9248 2.42723 15.8721 1.82872C15.8276 1.30406 15.0864 0.74831 14.5315 0.899879L13.9119 3.97401C13.7944 4.15667 12.6969 4.21108 12.8224 3.77969L13.4664 0.899879C12.0003 0.927084 11.7856 1.82872 11.4009 2.948L10.4531 2.94023C10.4693 0.487922 12.9075 -0.269927 15.1107 0.08762C18.4034 0.623941 16.3298 3.58536 16.103 5.64126H16.107Z" fill="white"/>
    <path d="M38.8265 0.21875L37.9881 4.36552C38.2068 5.26716 39.195 5.37209 39.9605 4.96402C40.8393 4.48988 41.1674 1.22532 41.3091 0.21875H42.5485L41.7061 3.91471C42.1799 4.73862 42.755 4.71918 42.3743 5.83069L41.2241 4.98346C40.4667 6.10663 37.741 6.25041 37.0809 5.04563C36.5301 4.03517 37.7896 1.44684 37.7734 0.226518L38.8305 0.21875H38.8265Z" fill="white"/>
    <path d="M19.6768 0.0516843C19.8874 0.24989 18.6157 3.88754 18.8709 4.46661C19.1989 5.20891 20.5719 5.13507 21.0984 4.56377C21.714 3.8992 21.9975 1.02328 22.1555 0.0477941C22.4957 0.0711124 23.3502 -0.123205 23.33 0.401456C23.3016 1.14764 22.4471 3.32402 22.5524 3.86034C22.6131 4.16736 23.2976 4.44718 23.3543 4.75032C23.3988 4.97962 23.1437 5.37604 23.2166 5.66751L22.0664 4.82416C21.2442 5.90458 18.5995 6.11833 17.9232 4.88246C17.4007 3.92641 18.6198 1.24869 18.6157 0.0633429L19.6728 0.0555685L19.6768 0.0516843Z" fill="white"/>
    <path d="M24.1073 3.11368L24.3908 2.4219C25.6909 2.2509 28.1047 3.06704 28.4612 1.3959C28.1736 0.684687 27.2623 0.595304 26.5779 0.805169C25.9744 0.991716 25.7193 1.85838 24.8161 1.57856C25.5532 -1.32846 32.0779 0.183347 28.364 2.85718C29.5547 3.25359 29.1335 4.77705 28.2465 5.29783C27.1449 5.94686 23.7874 6.02847 24.1073 4.13191L25.1482 4.15912C25.1847 5.14238 26.4969 5.11905 27.2745 4.87032C28.3761 4.52055 28.1169 3.10979 27.3919 3.10979H24.1114L24.1073 3.11368Z" fill="white"/>
    <path d="M64.1817 5.8343H62.9424C62.9505 4.66839 64.9877 0.754807 62.6791 0.886944C60.6986 1.00354 60.97 4.46241 60.4435 5.81488L59.3945 5.83043C60.0709 3.33925 59.5606 -0.243995 63.3676 0.230144C66.389 0.61101 63.9508 4.01548 64.1817 5.83043V5.8343Z" fill="white"/>
    <path d="M54.7865 1.57901L54.4949 2.4068L50.9065 2.28244C49.3594 5.12727 52.1944 6.6313 53.1786 3.52608L54.2519 3.45224C54.1061 4.76972 53.292 5.72189 51.8704 5.84237C47.6665 6.19603 49.9912 2.52339 50.1937 0.238199L51.2386 0.222656L51.0604 1.58289H54.7824L54.7865 1.57901Z" fill="white"/>
    <path d="M76.2394 1.57901L75.9478 2.4068C74.6477 2.58558 73.457 1.97153 72.1852 2.45733C72.2176 3.19185 71.3712 4.79693 72.4606 5.12339C73.7405 5.50425 74.4128 4.58706 74.6315 3.52997L75.7047 3.45613C75.5589 4.77361 74.7449 5.72577 73.3233 5.84625C69.0869 6.2038 71.4846 2.51562 71.6385 0.230431L72.6955 0.222656L72.5173 1.58289H76.2394V1.57901Z" fill="white"/>
    <path d="M79.432 0.221882C79.6224 1.5588 77.3584 5.20422 79.6993 5.16924C81.2748 5.14592 81.295 3.79735 81.3841 2.60423H82.6234C82.3318 3.90228 82.0443 5.57731 80.3959 5.82604C76.2405 6.45175 77.7917 3.26492 78.1927 0.901999H77.0425C76.6293 -0.217279 78.6908 0.346246 79.436 0.221882H79.432Z" fill="white"/>
    <path d="M48.3486 0.613418C49.0655 1.24301 48.7172 2.61102 48.4175 3.37664L47.3401 3.45048C47.1741 3.31057 48.6321 0.963195 46.7164 0.889354C44.5699 0.807739 44.8575 4.42596 44.3107 5.81729L43.2617 5.83283C43.6262 4.63194 43.7315 1.74436 44.6063 0.912671C45.4042 0.15094 47.5184 -0.117223 48.3486 0.613418Z" fill="white"/>
    <path d="M57.2693 0.21875L56.2042 5.15057C57.5893 5.12725 58.8003 4.8863 59.0433 6.51081L57.9011 6.52247C57.9619 5.36821 55.1835 6.04055 54.9648 5.83069L56.03 0.21875H57.2693Z" fill="white"/>
    <path d="M67.3749 0.22264L66.8444 2.60111H68.0837L68.0675 3.18406C67.9338 3.65432 67.2615 3.0869 66.8322 3.35895L66.1073 5.81126L65.0664 5.83069L66.2855 0.31591L67.3709 0.21875L67.3749 0.22264Z" fill="white"/>
    <path d="M108.843 39.8376L108.158 39.8609C107.899 39.6277 109.377 36.6157 107.745 36.674C106.291 36.7246 106.263 38.8388 106.21 39.8648H105.323C105.287 39.2507 106.077 37.1987 105.635 36.8411C103.566 36.2543 103.497 38.4346 103.371 39.8648H102.488L103.217 36.3165C103.833 36.0211 103.942 36.6429 103.991 36.6352C104.246 36.5924 104.736 36.1572 105.25 36.1338C105.89 36.1066 106.34 36.6313 106.656 36.6274C106.915 36.6274 107.535 36.1494 108.094 36.1377C110.285 36.0872 109.134 38.6095 108.847 39.8414L108.843 39.8376Z" fill="white"/>
    <path d="M123.053 34.5859L122.154 39.8481C121.542 40.1279 121.421 39.5139 121.368 39.5139C120.708 39.5255 120.185 40.466 118.881 39.6927C116.727 38.414 120.076 34.7142 121.988 36.6263L122.356 34.5976L123.053 34.5859ZM120.526 36.6574C119.088 36.8867 118.618 39.0281 119.631 39.3157C121.992 39.9919 122.648 36.3193 120.526 36.6574Z" fill="white"/>
    <path d="M111.26 38.1615C110.633 38.3286 111.317 39.2691 111.912 39.409C112.909 39.6422 113.277 38.5307 114.185 38.9271C112.937 40.5672 109.701 40.3768 110.361 37.8079C110.936 35.5615 115.25 35.4838 114.363 38.1615H111.26ZM113.435 36.8401C112.864 36.2922 111.03 36.8518 111.35 37.8195H113.654C113.658 37.5358 113.646 37.0422 113.435 36.8401Z" fill="white"/>
    <path d="M137.654 36.858C138.626 35.8942 141.287 35.832 141.49 37.4099C141.733 39.287 139.351 40.6045 137.703 39.6718C136.727 39.1199 136.962 37.5459 137.654 36.858ZM139.323 36.6598C137.703 36.8619 137.249 39.3919 138.95 39.4735C140.833 39.5629 141.36 36.4072 139.323 36.6598Z" fill="white"/>
    <path d="M131.921 38.1587H128.819L128.576 38.559C129.483 40.4555 130.484 38.6989 131.743 38.9243C130.613 40.4439 127.539 40.4594 127.859 38.0887C128.179 35.718 132.715 35.3294 131.921 38.1587ZM131.213 37.8167C131.626 36.2155 129.054 36.3321 128.908 37.5641C128.868 37.9138 128.916 37.7817 129.167 37.8167C129.791 37.9022 130.565 37.7545 131.213 37.8167Z" fill="white"/>
    <path d="M127.487 36.289C127.94 36.6893 124.494 38.8735 124.295 39.3515H126.956L126.689 39.8606H123.056C122.979 39.5653 123.185 39.5186 123.319 39.3476C124.056 38.4227 125.413 37.7503 126.243 36.8798L123.939 36.7943V36.2852H127.487V36.289Z" fill="white"/>
    <path d="M133.679 36.2968L134.307 39.1805C134.655 38.8423 135.838 36.4211 136.02 36.3123C136.202 36.2035 136.632 36.3201 136.879 36.2851C136.98 36.3667 135.688 38.2749 135.534 38.4809C135.084 39.0949 134.53 40.257 133.667 39.7556C133.501 38.7219 132.934 37.5326 132.808 36.526C132.752 36.0675 133.371 36.3278 133.679 36.289V36.2968Z" fill="white"/>
    <path d="M143.265 36.2873L143.889 39.1787C144.059 39.1826 145.452 36.4 145.602 36.3106C145.788 36.2018 146.214 36.3183 146.461 36.2834L144.415 39.5091C144.282 39.8355 143.451 40.0415 143.249 39.7539C143.152 39.6179 142.431 36.8624 142.39 36.5243C142.334 36.058 142.957 36.3417 143.269 36.2795L143.265 36.2873Z" fill="white"/>
    <path d="M118.083 36.7895C116.167 36.7818 116.054 38.3985 115.965 39.8598H115.082L115.69 36.4475L116.496 36.2921L116.589 36.7973L118.095 36.1172L118.087 36.7856L118.083 36.7895Z" fill="white"/>
</svg>
