<svg width="40" height="40" viewBox="0 0 40 40" fill="none" xmlns="http://www.w3.org/2000/svg">
    <path d="M19.9987 3.33594C10.7987 3.33594 3.33203 10.8026 3.33203 20.0026C3.33203 29.2026 10.7987 36.6693 19.9987 36.6693H28.332V33.3359H19.9987C12.7654 33.3359 6.66536 27.2359 6.66536 20.0026C6.66536 12.7693 12.7654 6.66927 19.9987 6.66927C27.232 6.66927 33.332 12.7693 33.332 20.0026V22.3859C33.332 23.7026 32.1487 25.0026 30.832 25.0026C29.5154 25.0026 28.332 23.7026 28.332 22.3859V20.0026C28.332 15.4026 24.5987 11.6693 19.9987 11.6693C15.3987 11.6693 11.6654 15.4026 11.6654 20.0026C11.6654 24.6026 15.3987 28.3359 19.9987 28.3359C22.2987 28.3359 24.3987 27.4026 25.8987 25.8859C26.982 27.3693 28.8487 28.3359 30.832 28.3359C34.1154 28.3359 36.6654 25.6693 36.6654 22.3859V20.0026C36.6654 10.8026 29.1987 3.33594 19.9987 3.33594ZM19.9987 25.0026C17.232 25.0026 14.9987 22.7693 14.9987 20.0026C14.9987 17.2359 17.232 15.0026 19.9987 15.0026C22.7654 15.0026 24.9987 17.2359 24.9987 20.0026C24.9987 22.7693 22.7654 25.0026 19.9987 25.0026Z" fill="white"/>
</svg>
