<svg width="40" height="40" viewBox="0 0 40 40" fill="none" xmlns="http://www.w3.org/2000/svg">
    <path d="M28.9667 17.9833C26.5667 22.7 22.7 26.55 17.9833 28.9667L14.3167 25.3C13.8667 24.85 13.2 24.7 12.6167 24.9C10.75 25.5167 8.73333 25.85 6.66667 25.85C5.75 25.85 5 26.6 5 27.5167V33.3333C5 34.25 5.75 35 6.66667 35C22.3167 35 35 22.3167 35 6.66667C35 5.75 34.25 5 33.3333 5H27.5C26.5833 5 25.8333 5.75 25.8333 6.66667C25.8333 8.75 25.5 10.75 24.8833 12.6167C24.7 13.2 24.8333 13.85 25.3 14.3167L28.9667 17.9833Z" fill="white"/>
</svg>
