<svg width="40" height="40" viewBox="0 0 40 40" fill="none" xmlns="http://www.w3.org/2000/svg">
    <circle cx="20" cy="20" r="20" fill="#4D71B6"/>
    <path d="M28.4395 14.5506C28.1934 17.0491 27.1269 23.1213 26.5855 25.9202C26.3558 27.1062 25.8964 27.5015 25.4698 27.5489C24.5182 27.628 23.7962 26.948 22.8774 26.3629C21.4336 25.4458 20.6132 24.8765 19.2185 23.991C17.5942 22.9631 18.6443 22.3939 19.5795 21.4767C19.8256 21.2395 24.0259 17.5551 24.108 17.223C24.1194 17.1727 24.1179 17.1205 24.1036 17.0709C24.0893 17.0213 24.0626 16.9758 24.0259 16.9384C23.9275 16.8593 23.7962 16.8909 23.6814 16.9068C23.5337 16.9384 21.2367 18.409 16.7574 21.3186C16.1011 21.7455 15.5105 21.9669 14.9854 21.9511C14.3947 21.9353 13.279 21.6349 12.4423 21.366C11.4086 21.0498 10.6046 20.8758 10.6703 20.3224C10.7031 20.0377 11.1133 19.7531 11.8844 19.4527C16.6754 17.4444 19.8584 16.1161 21.45 15.4836C26.0112 13.6493 26.9465 13.333 27.57 13.333C27.7012 13.333 28.013 13.3646 28.2098 13.5228C28.3739 13.6493 28.4231 13.8232 28.4395 13.9497C28.4231 14.0446 28.456 14.3292 28.4395 14.5506Z" fill="#F7F8FA"/>
</svg>
