<svg width="40" height="40" viewBox="0 0 40 40" fill="none" xmlns="http://www.w3.org/2000/svg">
    <path d="M33.8967 31.7401C34.9363 26.1641 36.9839 14.0672 37.4565 9.08976C37.488 8.64872 37.425 8.08168 37.4565 7.89266C37.425 7.64064 37.3305 7.29411 37.0154 7.04209C36.6374 6.72707 36.0389 6.66406 35.7868 6.66406C34.5897 6.66406 32.7941 7.29412 24.0364 10.9484C20.9806 12.2085 14.8692 14.8547 5.67042 18.8555C4.1898 19.4541 3.40224 20.0211 3.33923 20.5882C3.21322 21.6908 4.75685 22.0373 6.7415 22.6673C8.34813 23.2029 10.4903 23.8014 11.6244 23.8329C12.6325 23.8644 13.7666 23.4234 15.0267 22.5728C23.6269 16.7764 28.0372 13.8466 28.3207 13.7836C28.5413 13.7521 28.7933 13.6891 28.9823 13.8466C29.0527 13.9212 29.1039 14.0118 29.1313 14.1106C29.1588 14.2095 29.1617 14.3135 29.1398 14.4137C28.9823 15.0752 20.9176 22.4153 20.4451 22.8879C18.6495 24.715 16.6333 25.8491 19.7521 27.8968C22.4298 29.6609 24.0049 30.795 26.7771 32.6221C28.5413 33.7877 29.9274 35.1424 31.7545 34.9848C32.5736 34.8903 33.4557 34.1028 33.8967 31.7401Z" fill="white"/>
</svg>
