<svg width="40" height="40" viewBox="0 0 40 40" fill="none" xmlns="http://www.w3.org/2000/svg">
    <circle cx="20" cy="20" r="20" fill="#4D71B6"/>
    <path fill-rule="evenodd" clip-rule="evenodd" d="M28.22 21.8527C28.0866 22.4448 27.8799 22.9796 27.6131 23.4571C27.2929 24.0174 26.8794 24.5076 26.3724 24.9088C24.9718 26.0293 23.2976 26.1885 21.5034 26.1885C21.1566 26.1885 20.8164 26.1821 20.4629 26.1758H20.4495C20.4451 26.1758 20.4429 26.1758 20.4429 26.1758H20.4229C19.9626 26.1821 19.5091 26.1885 19.0622 26.1821L16.9211 28.2705C16.8011 28.3787 16.6477 28.4424 16.4876 28.4424C16.412 28.4424 16.3364 28.4275 16.2608 28.3978C16.034 28.3087 15.8873 28.0986 15.8873 27.8694V25.6983C15.4071 25.5072 14.9468 25.2526 14.5133 24.9088C14.0064 24.5076 13.5928 24.0174 13.2727 23.4571C13.0059 22.9796 12.7991 22.4448 12.6657 21.8527C12.4256 20.8148 12.4389 19.7961 12.4456 19.0512C12.4656 17.5423 12.4923 15.473 14.1598 13.9577C14.8935 13.2892 15.8206 12.8626 16.9812 12.6525C17.955 12.4679 19.0155 12.4615 20.0427 12.4488H20.1094C20.2161 12.4488 20.325 12.4466 20.4362 12.4424H20.4429H20.4495C20.5607 12.4466 20.6719 12.4488 20.783 12.4488H20.8497C21.8702 12.4615 22.9308 12.4679 23.9112 12.6525C25.0718 12.8626 25.9923 13.2892 26.7326 13.9577C28.3934 15.473 28.4201 17.5423 28.4401 19.0512C28.4468 19.7961 28.4601 20.8148 28.22 21.8527ZM23.7445 21.3242C23.6711 21.1523 23.5177 21.1523 21.9236 20.4074C21.5701 20.2418 21.4967 20.4774 20.8164 21.2605C20.7541 21.3284 20.6852 21.373 20.6096 21.3942C20.5162 21.4197 20.4295 21.3942 20.3628 21.3688C19.4557 21.0186 18.7821 20.3819 18.7821 20.3819C18.7821 20.3819 18.1151 19.7452 17.7482 18.8729C17.7282 18.8156 17.7015 18.7265 17.7215 18.6374C17.7438 18.5652 17.7927 18.5015 17.8683 18.4464C18.6887 17.7906 18.9288 17.7205 18.7554 17.3831C17.9817 15.8614 17.975 15.715 17.7949 15.6449C17.3213 15.4667 16.7877 15.7914 16.7077 15.8359C15.9473 16.3007 15.7872 17.2749 15.8006 17.6123C15.8473 18.6437 16.4276 20.0636 17.7015 21.4006C19.0755 22.7249 20.6296 23.3616 21.6835 23.2279C22.3038 23.1515 23.2909 22.744 23.5444 22.362C23.5911 22.2856 23.9312 21.7762 23.7445 21.3242ZM20.6163 17.1921C20.663 17.3385 20.8097 17.4786 20.9765 17.5359C21.5701 17.7205 22.1437 18.2044 22.4105 18.7392C22.4839 18.892 22.6573 19.013 22.8174 19.0385C23.0241 19.0703 23.1242 18.9175 23.0241 18.7201C22.9574 18.5886 22.8774 18.457 22.784 18.3254C22.6106 18.0771 22.3972 17.8479 22.1504 17.6441C21.9036 17.434 21.6435 17.2621 21.3633 17.1284C21.2166 17.0563 21.0676 16.9968 20.9164 16.9501C20.703 16.8801 20.5563 16.9947 20.6163 17.1921ZM24.3581 18.6756C24.2381 18.3954 24.0847 18.1153 23.8846 17.8415C23.6178 17.4659 23.2976 17.122 22.9241 16.8037C22.5506 16.4917 22.1437 16.2307 21.7235 16.0206C21.4167 15.8741 21.1099 15.7595 20.803 15.6768C20.5963 15.6258 20.4696 15.7468 20.5229 15.9251V15.9314C20.5763 16.0842 20.743 16.2371 20.9164 16.2816C22.0903 16.5809 23.2576 17.5614 23.7245 18.6437C23.7912 18.8029 23.9646 18.9366 24.138 18.9684C24.3381 18.9939 24.4382 18.8602 24.3581 18.6756ZM25.6187 18.5419C25.4587 18.1344 25.2319 17.7333 24.9518 17.3385C24.5982 16.8483 24.178 16.3899 23.6845 15.976C23.1976 15.5685 22.6706 15.2247 22.117 14.9509C21.6701 14.7345 21.2233 14.5753 20.783 14.4734C20.5829 14.4225 20.4562 14.5435 20.5162 14.7217C20.5629 14.8809 20.7363 15.0337 20.9098 15.0783C22.6239 15.473 24.3448 16.9183 24.9718 18.4909C25.0385 18.6565 25.2185 18.7965 25.392 18.8284C25.5854 18.8538 25.6921 18.7265 25.6187 18.5419Z" fill="#F7F8FA"/>
</svg>
