<svg width="40" height="40" viewBox="0 0 40 40" fill="none" xmlns="http://www.w3.org/2000/svg">
    <circle cx="20" cy="20" r="20" fill="#4D71B6"/>
    <path d="M20.0001 11.5557C15.344 11.5557 11.5557 15.3439 11.5557 20.0001C11.5557 21.454 11.9313 22.8837 12.6436 24.1452L11.5693 27.9783C11.5341 28.1042 11.5682 28.2393 11.6593 28.3329C11.7294 28.4053 11.8248 28.4446 11.9229 28.4446C11.9522 28.4446 11.982 28.4409 12.011 28.4339L16.0114 27.443C17.2329 28.0987 18.6086 28.4446 20.0001 28.4446C24.6563 28.4446 28.4446 24.6563 28.4446 20.0001C28.4446 15.3439 24.6563 11.5557 20.0001 11.5557ZM24.248 22.9799C24.0674 23.48 23.2009 23.9363 22.7846 23.9976C22.4108 24.0523 21.9379 24.0758 21.4188 23.9128C21.1042 23.8137 20.7003 23.6823 20.183 23.4616C18.0084 22.5342 16.5882 20.372 16.4795 20.2292C16.3712 20.0864 15.5944 19.0686 15.5944 18.0153C15.5944 16.9619 16.1543 16.4439 16.3532 16.2295C16.5522 16.0151 16.7869 15.9615 16.9315 15.9615C17.0762 15.9615 17.2205 15.9633 17.3471 15.9692C17.4804 15.9758 17.6592 15.9189 17.8351 16.3367C18.0157 16.7655 18.4493 17.8189 18.5029 17.9264C18.5572 18.0337 18.5932 18.1589 18.5213 18.3017C18.4493 18.4445 18.4133 18.5337 18.3046 18.6589C18.196 18.7841 18.077 18.9379 17.9794 19.0341C17.8707 19.141 17.758 19.2566 17.8843 19.471C18.0106 19.6855 18.4456 20.3864 19.0903 20.954C19.9183 21.6831 20.6169 21.9093 20.8336 22.0165C21.0502 22.1237 21.1768 22.1057 21.3031 21.9629C21.4294 21.8197 21.8451 21.3376 21.9893 21.1236C22.1336 20.9095 22.2783 20.9448 22.4773 21.0164C22.6763 21.0876 23.7421 21.6053 23.9587 21.7125C24.1754 21.8197 24.32 21.8733 24.3743 21.9625C24.4287 22.0514 24.4287 22.4802 24.248 22.9799Z" fill="#F7F8FA"/>
</svg>
